<svg width="25" height="17" viewBox="0 0 25 17" fill="none" xmlns="http://www.w3.org/2000/svg">
<path d="M0 16.25V13.75H12.5V16.25H0ZM0 10V7.5H6.25V10H0ZM0 3.75V1.25H6.25V3.75H0ZM23.25 16.25L18.4375 11.4375C17.9375 11.7917 17.3906 12.0573 16.7969 12.2344C16.2031 12.4115 15.6042 12.5 15 12.5C13.2708 12.5 11.7969 11.8906 10.5781 10.6719C9.35938 9.45312 8.75 7.97917 8.75 6.25C8.75 4.52083 9.35938 3.04688 10.5781 1.82812C11.7969 0.609375 13.2708 0 15 0C16.7292 0 18.2031 0.609375 19.4219 1.82812C20.6406 3.04688 21.25 4.52083 21.25 6.25C21.25 6.85417 21.1615 7.45312 20.9844 8.04688C20.8073 8.64062 20.5417 9.1875 20.1875 9.6875L25 14.5L23.25 16.25ZM15 10C16.0417 10 16.9271 9.63542 17.6562 8.90625C18.3854 8.17708 18.75 7.29167 18.75 6.25C18.75 5.20833 18.3854 4.32292 17.6562 3.59375C16.9271 2.86458 16.0417 2.5 15 2.5C13.9583 2.5 13.0729 2.86458 12.3438 3.59375C11.6146 4.32292 11.25 5.20833 11.25 6.25C11.25 7.29167 11.6146 8.17708 12.3438 8.90625C13.0729 9.63542 13.9583 10 15 10Z" fill="#4A5D8E"/>
</svg>
